<?xml version="1.0" encoding="UTF-8" standalone="no"?>
<svg
   xmlns:dc="http://purl.org/dc/elements/1.1/"
   xmlns:cc="http://creativecommons.org/ns#"
   xmlns:rdf="http://www.w3.org/1999/02/22-rdf-syntax-ns#"
   xmlns:svg="http://www.w3.org/2000/svg"
   xmlns="http://www.w3.org/2000/svg"
   xmlns:sodipodi="http://sodipodi.sourceforge.net/DTD/sodipodi-0.dtd"
   xmlns:inkscape="http://www.inkscape.org/namespaces/inkscape"
   width="32"
   height="32"
   viewBox="0 0 209.89055 226.02279"
   version="1.1"
   id="svg8"
   inkscape:version="1.0.2 (e86c870879, 2021-01-15)"
   sodipodi:docname="gj_arrow_down-symbolic.svg"
   style="enable-background:new">
  <defs
     id="defs2">
    <marker
       style="overflow:visible"
       id="DotL"
       refX="0.0"
       refY="0.0"
       orient="auto"
       inkscape:stockid="DotL"
       inkscape:isstock="true">
      <path
         transform="scale(0.8) translate(7.4, 1)"
         style="fill-rule:evenodd;stroke:#000000;stroke-width:1pt;stroke-opacity:1;fill:#000000;fill-opacity:1"
         d="M -2.5,-1.0 C -2.5,1.7600000 -4.7400000,4.0 -7.5,4.0 C -10.260000,4.0 -12.5,1.7600000 -12.5,-1.0 C -12.5,-3.7600000 -10.260000,-6.0 -7.5,-6.0 C -4.7400000,-6.0 -2.5,-3.7600000 -2.5,-1.0 z "
         id="path934" />
    </marker>
  </defs>
  <sodipodi:namedview
     id="base"
     borderopacity="0.50196078"
     inkscape:pageopacity="0"
     inkscape:pageshadow="2"
     inkscape:zoom="11.119978"
     inkscape:cx="3.8573509"
     inkscape:cy="20.132856"
     inkscape:document-units="mm"
     inkscape:current-layer="layer1"
     inkscape:document-rotation="0"
     showgrid="false"
     inkscape:window-width="1505"
     inkscape:window-height="973"
     inkscape:window-x="322"
     inkscape:window-y="20"
     inkscape:window-maximized="0"
     inkscape:showpageshadow="false"
     showborder="true"
     borderlayer="false"
     bordercolor="#000000"
     pagecolor="#ffffff" />
  <metadata
     id="metadata5">
    <rdf:RDF>
      <cc:Work
         rdf:about="">
        <dc:format>image/svg+xml</dc:format>
        <dc:type
           rdf:resource="http://purl.org/dc/dcmitype/StillImage" />
        <dc:title />
      </cc:Work>
    </rdf:RDF>
  </metadata>
  <g
     inkscape:label="Layer 1"
     inkscape:groupmode="layer"
     id="layer1">
    <path
       id="path871-6-3"
       style="color:#000000;font-style:normal;font-variant:normal;font-weight:normal;font-stretch:normal;font-size:medium;line-height:normal;font-family:sans-serif;font-variant-ligatures:normal;font-variant-position:normal;font-variant-caps:normal;font-variant-numeric:normal;font-variant-alternates:normal;font-variant-east-asian:normal;font-feature-settings:normal;font-variation-settings:normal;text-indent:0;text-align:start;text-decoration:none;text-decoration-line:none;text-decoration-style:solid;text-decoration-color:#000000;letter-spacing:normal;word-spacing:normal;text-transform:none;writing-mode:lr-tb;direction:ltr;text-orientation:mixed;dominant-baseline:auto;baseline-shift:baseline;text-anchor:start;white-space:normal;shape-padding:0;shape-margin:0;inline-size:0;clip-rule:nonzero;display:inline;overflow:visible;visibility:visible;opacity:0.536761;isolation:auto;mix-blend-mode:normal;color-interpolation:sRGB;color-interpolation-filters:linearRGB;solid-color:#000000;solid-opacity:1;vector-effect:none;fill:#000000;fill-opacity:1;fill-rule:evenodd;stroke:none;stroke-width:1;stroke-linecap:round;stroke-linejoin:miter;stroke-miterlimit:4;stroke-dasharray:none;stroke-dashoffset:0;stroke-opacity:1;color-rendering:auto;image-rendering:auto;shape-rendering:auto;text-rendering:auto;enable-background:new;stop-color:#000000"
       d="m 107.42719,154.67624 c -0.0902,-0.004 -0.18027,-0.0128 -0.26977,-0.0276 -0.0906,-0.0127 -0.18061,-0.0311 -0.26978,-0.0552 -0.0182,-0.004 -0.0359,-0.009 -0.0541,-0.0138 -0.0877,-0.0313 -0.17414,-0.0682 -0.25894,-0.11036 -0.1032,-0.0475 -0.20408,-0.10276 -0.30215,-0.16555 -0.0661,-0.0427 -0.13093,-0.0887 -0.19425,-0.13795 -0.0326,-0.0222 -0.0651,-0.0451 -0.0971,-0.069 -0.0144,-0.0136 -0.0287,-0.0274 -0.0431,-0.0414 -0.0293,-0.0223 -0.0579,-0.0453 -0.0864,-0.069 L 32.627616,84.554583 c -1.228745,-1.16485 -1.484936,-3.38343 -0.571895,-4.95253 0.911128,-1.57092 28.110669,-1.0357 29.337994,0.1316 l 46.705565,38.937297 45.622,-38.554837 c 1.22733,-1.1673 28.31731,-2.08498 29.22844,-0.51406 0.91304,1.5691 0.65685,3.78767 -0.57189,4.95253 l -73.10547,69.307727 c -0.0387,0.0428 -0.0782,0.0842 -0.11867,0.12416 -0.0459,0.0432 -0.0925,0.0846 -0.14027,0.12416 -0.0459,0.0386 -0.0927,0.0754 -0.14027,0.11036 -0.0497,0.0341 -0.1,0.0663 -0.15105,0.0966 -0.0464,0.0292 -0.0929,0.0569 -0.14027,0.0828 -0.0177,0.009 -0.0359,0.0186 -0.0541,0.0276 -0.078,0.0367 -0.15718,0.0689 -0.2374,0.0966 -0.007,0.005 -0.0144,0.009 -0.0215,0.0138 -0.0712,0.0267 -0.1432,0.0497 -0.21579,0.069 -0.0679,0.0171 -0.1363,0.0309 -0.20503,0.0414 -0.0215,0.005 -0.0431,0.01 -0.0647,0.0138 -0.10044,0.0117 -0.20132,0.0162 -0.30214,0.0138 -0.0182,2.2e-4 -0.0359,2.2e-4 -0.0541,0 z"
       sodipodi:nodetypes="cccccccccccccccccccccccccccccccc" />
  </g>
</svg>
