<?xml version="1.0" encoding="UTF-8" standalone="no"?>
<svg
   xmlns:dc="http://purl.org/dc/elements/1.1/"
   xmlns:cc="http://creativecommons.org/ns#"
   xmlns:rdf="http://www.w3.org/1999/02/22-rdf-syntax-ns#"
   xmlns:svg="http://www.w3.org/2000/svg"
   xmlns="http://www.w3.org/2000/svg"
   xmlns:sodipodi="http://sodipodi.sourceforge.net/DTD/sodipodi-0.dtd"
   xmlns:inkscape="http://www.inkscape.org/namespaces/inkscape"
   width="32"
   height="32"
   viewBox="0 0 209.89055 226.02279"
   version="1.1"
   id="svg8"
   inkscape:version="1.0.2 (e86c870879, 2021-01-15)"
   sodipodi:docname="gj_arrow_up-symbolic.svg"
   style="enable-background:new">
  <defs
     id="defs2">
    <marker
       style="overflow:visible"
       id="DotL"
       refX="0.0"
       refY="0.0"
       orient="auto"
       inkscape:stockid="DotL"
       inkscape:isstock="true">
      <path
         transform="scale(0.8) translate(7.4, 1)"
         style="fill-rule:evenodd;stroke:#000000;stroke-width:1pt;stroke-opacity:1;fill:#000000;fill-opacity:1"
         d="M -2.5,-1.0 C -2.5,1.7600000 -4.7400000,4.0 -7.5,4.0 C -10.260000,4.0 -12.5,1.7600000 -12.5,-1.0 C -12.5,-3.7600000 -10.260000,-6.0 -7.5,-6.0 C -4.7400000,-6.0 -2.5,-3.7600000 -2.5,-1.0 z "
         id="path934" />
    </marker>
  </defs>
  <sodipodi:namedview
     id="base"
     borderopacity="0.50196078"
     inkscape:pageopacity="0"
     inkscape:pageshadow="2"
     inkscape:zoom="15.803779"
     inkscape:cx="19.668616"
     inkscape:cy="18.763541"
     inkscape:document-units="mm"
     inkscape:current-layer="layer1"
     inkscape:document-rotation="0"
     showgrid="false"
     inkscape:window-width="1505"
     inkscape:window-height="973"
     inkscape:window-x="322"
     inkscape:window-y="20"
     inkscape:window-maximized="0"
     inkscape:showpageshadow="false"
     showborder="true"
     borderlayer="false"
     bordercolor="#000000"
     pagecolor="#ffffff" />
  <metadata
     id="metadata5">
    <rdf:RDF>
      <cc:Work
         rdf:about="">
        <dc:format>image/svg+xml</dc:format>
        <dc:type
           rdf:resource="http://purl.org/dc/dcmitype/StillImage" />
        <dc:title />
      </cc:Work>
    </rdf:RDF>
  </metadata>
  <g
     inkscape:label="Layer 1"
     inkscape:groupmode="layer"
     id="layer1"
     transform="translate(0,0)">
    <path
       id="path871-6"
       style="color:#000000;font-style:normal;font-variant:normal;font-weight:normal;font-stretch:normal;font-size:medium;line-height:normal;font-family:sans-serif;font-variant-ligatures:normal;font-variant-position:normal;font-variant-caps:normal;font-variant-numeric:normal;font-variant-alternates:normal;font-variant-east-asian:normal;font-feature-settings:normal;font-variation-settings:normal;text-indent:0;text-align:start;text-decoration:none;text-decoration-line:none;text-decoration-style:solid;text-decoration-color:#000000;letter-spacing:normal;word-spacing:normal;text-transform:none;writing-mode:lr-tb;direction:ltr;text-orientation:mixed;dominant-baseline:auto;baseline-shift:baseline;text-anchor:start;white-space:normal;shape-padding:0;shape-margin:0;inline-size:0;clip-rule:nonzero;display:inline;overflow:visible;visibility:visible;opacity:0.536761;isolation:auto;mix-blend-mode:normal;color-interpolation:sRGB;color-interpolation-filters:linearRGB;solid-color:#000000;solid-opacity:1;vector-effect:none;fill:#000000;fill-opacity:1;fill-rule:evenodd;stroke:none;stroke-width:1;stroke-linecap:round;stroke-linejoin:miter;stroke-miterlimit:4;stroke-dasharray:none;stroke-dashoffset:0;stroke-opacity:1;color-rendering:auto;image-rendering:auto;shape-rendering:auto;text-rendering:auto;enable-background:new;stop-color:#000000;stop-opacity:1"
       d="m 106.50336,67.18877 c -0.0902,0.0036 -0.18027,0.01278 -0.26977,0.02762 -0.0906,0.01271 -0.18061,0.03115 -0.26978,0.05516 -0.0182,0.0044 -0.0359,0.009 -0.0541,0.01377 -0.0877,0.03129 -0.17414,0.06816 -0.25894,0.110362 -0.1032,0.04747 -0.20408,0.102756 -0.30215,0.165541 -0.0661,0.04266 -0.13093,0.08866 -0.19425,0.137951 -0.0326,0.02218 -0.0651,0.04513 -0.0971,0.06901 -0.0144,0.01363 -0.0287,0.02741 -0.0431,0.04139 -0.0293,0.02232 -0.0579,0.04528 -0.0864,0.06901 l -73.224,69.431876 c -1.228745,1.16485 -1.484936,3.38343 -0.571895,4.95253 0.911128,1.57092 28.110669,1.0357 29.337994,-0.1316 l 46.705581,-38.93733 45.622,38.55487 c 1.22733,1.1673 28.31731,2.08498 29.22844,0.51406 0.91304,-1.5691 0.65685,-3.78767 -0.57189,-4.95253 L 108.34853,68.002694 c -0.0387,-0.0428 -0.0782,-0.08418 -0.11867,-0.124157 -0.0459,-0.04323 -0.0925,-0.08463 -0.14027,-0.124157 -0.0459,-0.03857 -0.0927,-0.07536 -0.14027,-0.110363 -0.0497,-0.03411 -0.1,-0.06632 -0.15105,-0.09657 -0.0464,-0.02924 -0.0929,-0.05686 -0.14027,-0.08277 -0.0177,-0.0095 -0.0359,-0.01865 -0.0541,-0.02762 -0.078,-0.03673 -0.15718,-0.06894 -0.2374,-0.09657 -0.007,-0.0046 -0.0144,-0.0093 -0.0215,-0.01377 -0.0712,-0.0267 -0.1432,-0.04972 -0.21579,-0.06901 -0.0679,-0.01709 -0.1363,-0.03087 -0.20503,-0.04139 -0.0215,-0.0049 -0.0431,-0.0095 -0.0647,-0.01377 -0.10044,-0.01165 -0.20132,-0.01624 -0.30214,-0.01377 -0.0182,-2.24e-4 -0.0359,-2.24e-4 -0.0541,0 z"
       sodipodi:nodetypes="cccccccccccccccccccccccccccccccc" />
  </g>
</svg>
