<?xml version="1.0" encoding="UTF-8" standalone="no"?>
<svg
   xmlns:dc="http://purl.org/dc/elements/1.1/"
   xmlns:cc="http://creativecommons.org/ns#"
   xmlns:rdf="http://www.w3.org/1999/02/22-rdf-syntax-ns#"
   xmlns:svg="http://www.w3.org/2000/svg"
   xmlns="http://www.w3.org/2000/svg"
   xmlns:sodipodi="http://sodipodi.sourceforge.net/DTD/sodipodi-0.dtd"
   xmlns:inkscape="http://www.inkscape.org/namespaces/inkscape"
   width="16"
   height="16"
   viewBox="0 0 160.24831 116.60035"
   version="1.1"
   id="svg8"
   inkscape:version="1.0.2 (e86c870879, 2021-01-15)"
   sodipodi:docname="kanjipad-symbolic.svg">
  <defs
     id="defs2">
    <inkscape:path-effect
       effect="spiro"
       id="path-effect921"
       is_visible="true"
       lpeversion="1" />
    <inkscape:path-effect
       effect="spiro"
       id="path-effect897"
       is_visible="true"
       lpeversion="1" />
    <inkscape:path-effect
       effect="spiro"
       id="path-effect873"
       is_visible="true"
       lpeversion="1" />
    <inkscape:path-effect
       effect="spiro"
       id="path-effect850"
       is_visible="true"
       lpeversion="1" />
    <inkscape:path-effect
       effect="spiro"
       id="path-effect846"
       is_visible="true"
       lpeversion="1" />
    <inkscape:path-effect
       effect="spiro"
       id="path-effect842"
       is_visible="true"
       lpeversion="1" />
  </defs>
  <sodipodi:namedview
     id="base"
     borderopacity="1.0"
     inkscape:pageopacity="0.0"
     inkscape:pageshadow="2"
     inkscape:zoom="25.542283"
     inkscape:cx="9.5925136"
     inkscape:cy="14.176299"
     inkscape:document-units="mm"
     inkscape:current-layer="layer1"
     inkscape:document-rotation="0"
     showgrid="false"
     inkscape:window-width="1414"
     inkscape:window-height="1041"
     inkscape:window-x="430"
     inkscape:window-y="0"
     inkscape:window-maximized="0"
     showborder="true"
     inkscape:showpageshadow="false" />
  <metadata
     id="metadata5">
    <rdf:RDF>
      <cc:Work
         rdf:about="">
        <dc:format>image/svg+xml</dc:format>
        <dc:type
           rdf:resource="http://purl.org/dc/dcmitype/StillImage" />
        <dc:title />
      </cc:Work>
    </rdf:RDF>
  </metadata>
  <g
     inkscape:label="Layer 1"
     inkscape:groupmode="layer"
     id="layer1"
     transform="translate(109.76993,55.306372)">
    <g
       id="path914"
       style="opacity:1;stroke-width:0.904862"
       transform="matrix(1,0,0,1.2213376,0.58817291,-1.4459361)">
      <path
         style="color:#000000;font-style:normal;font-variant:normal;font-weight:normal;font-stretch:normal;font-size:medium;line-height:normal;font-family:sans-serif;font-variant-ligatures:normal;font-variant-position:normal;font-variant-caps:normal;font-variant-numeric:normal;font-variant-alternates:normal;font-variant-east-asian:normal;font-feature-settings:normal;font-variation-settings:normal;text-indent:0;text-align:start;text-decoration:none;text-decoration-line:none;text-decoration-style:solid;text-decoration-color:#000000;letter-spacing:normal;word-spacing:normal;text-transform:none;writing-mode:lr-tb;direction:ltr;text-orientation:mixed;dominant-baseline:auto;baseline-shift:baseline;text-anchor:start;white-space:normal;shape-padding:0;shape-margin:0;inline-size:0;clip-rule:nonzero;display:inline;overflow:visible;visibility:visible;isolation:auto;mix-blend-mode:normal;color-interpolation:sRGB;color-interpolation-filters:linearRGB;solid-color:#000000;solid-opacity:1;vector-effect:none;fill:#ff0000;fill-opacity:0;fill-rule:evenodd;stroke:none;stroke-width:4.49263;stroke-linecap:butt;stroke-linejoin:miter;stroke-miterlimit:4;stroke-dasharray:none;stroke-dashoffset:0;stroke-opacity:1;color-rendering:auto;image-rendering:auto;shape-rendering:auto;text-rendering:auto;enable-background:accumulate;stop-color:#000000;stop-opacity:1"
         d="m -64.2788,8.0979596 c -4.201365,1.3901468 -3.552361,7.5679464 -4.431407,9.1810814 -0.879043,1.613136 -2.749529,6.630591 -6.119295,8.960284 -3.369764,2.329693 -7.857553,1.987222 -9.776516,-0.609756 -1.918965,-2.596978 -3.911737,-13.244589 -4.133156,-15.322172 -0.221418,-2.0775823 1.328514,-13.5042802 3.24748,-16.6206538 1.918963,-3.1163736 10.774217,-11.0786772 13.505052,-14.7144472 2.730834,-3.635769 14.242244,-9.952283 16.973078,-10.904508 2.730832,-0.952225 17.058957,-3.20294 19.556397,-1.991016 2.497442,1.211921 5.437847,2.739194 5.437847,2.739194 l 2.495108,5.101797 -33.803299,37.121156 z"
         id="path880" />
      <path
         style="color:#000000;font-style:normal;font-variant:normal;font-weight:normal;font-stretch:normal;font-size:medium;line-height:normal;font-family:sans-serif;font-variant-ligatures:normal;font-variant-position:normal;font-variant-caps:normal;font-variant-numeric:normal;font-variant-alternates:normal;font-variant-east-asian:normal;font-feature-settings:normal;font-variation-settings:normal;text-indent:0;text-align:start;text-decoration:none;text-decoration-line:none;text-decoration-style:solid;text-decoration-color:#000000;letter-spacing:normal;word-spacing:normal;text-transform:none;writing-mode:lr-tb;direction:ltr;text-orientation:mixed;dominant-baseline:auto;baseline-shift:baseline;text-anchor:start;white-space:normal;shape-padding:0;shape-margin:0;inline-size:0;clip-rule:nonzero;display:inline;overflow:visible;visibility:visible;isolation:auto;mix-blend-mode:normal;color-interpolation:sRGB;color-interpolation-filters:linearRGB;solid-color:#000000;solid-opacity:1;vector-effect:none;fill:#000000;fill-opacity:1;fill-rule:evenodd;stroke:none;stroke-width:0.812573;stroke-linecap:butt;stroke-linejoin:miter;stroke-miterlimit:4;stroke-dasharray:none;stroke-dashoffset:0;stroke-opacity:1;color-rendering:auto;image-rendering:auto;shape-rendering:auto;text-rendering:auto;enable-background:accumulate;stop-color:#000000;stop-opacity:1"
         d="m -36.769531,-36.785156 c -0.772625,-0.04768 -1.56174,0.01717 -2.492188,0.04687 -1.860896,0.05941 -4.026594,0.263672 -6.195312,0.535156 -4.337437,0.542969 -8.307254,1.207405 -10.373047,1.927734 -1.952816,0.680935 -5.296804,2.45236 -8.955078,4.664063 -3.658275,2.211703 -7.228771,4.48659 -9.185547,7.091797 -1.114199,1.483419 -4.037018,4.45829 -6.839844,7.300781 -2.802825,2.842491 -5.436451,5.3973749 -6.794922,7.6035156 -1.513325,2.4576194 -2.141118,5.9671544 -2.759765,9.5839844 -0.309324,1.808415 -0.548314,3.5725361 -0.699219,5.0507812 -0.150905,1.4782452 -0.255689,2.4894521 -0.142578,3.5507808 0.146519,1.374792 0.694851,4.434672 1.482422,7.773438 0.393785,1.669383 0.840822,3.363248 1.335937,4.865234 0.495115,1.501987 0.945617,2.760318 1.785156,3.896485 2.956342,4.000887 8.8741,4.156508 13.185547,1.175781 2.19388,-1.516742 3.64739,-3.650132 4.738281,-5.558594 1.090892,-1.908462 1.872372,-3.749249 2.148438,-4.255859 0.599741,-1.100584 0.612458,-1.865196 0.746094,-2.726563 0.133635,-0.861366 0.2597,-1.747661 0.455078,-2.541015 0.207612,-0.843032 0.440608,-1.44395 0.75,-1.896485 l 3.339844,3.328125 36.6875,-40.289062 -3.595704,-7.351563 -0.726562,-0.376953 c 0,0 -2.952157,-1.5341 -5.498047,-2.769531 -0.867341,-0.420891 -1.62386,-0.581227 -2.396484,-0.628906 z m -2.333985,5.009765 c 1.613371,-0.05151 3.048462,0.321759 2.5625,0.08594 2.121776,1.029623 4.03293,2.0243 4.658204,2.347656 l 1.386718,2.835938 -30.919922,33.9550778 -2.193359,-2.1875 -1.449219,0.4785156 c -3.178068,1.0515585 -4.536951,4.018472 -5.091797,6.2714846 -0.277422,1.126506 -0.417815,2.172689 -0.541015,2.966797 -0.123201,0.794107 -0.359437,1.407297 -0.199219,1.113281 -0.602977,1.106525 -1.193055,2.580043 -2.099609,4.166015 -0.906554,1.585973 -2.076067,3.126503 -3.251954,3.939454 -2.428081,1.678658 -5.485603,1.150099 -6.367187,-0.04297 -0.119943,-0.162322 -0.637342,-1.210235 -1.0625,-2.5 -0.425158,-1.289765 -0.848747,-2.874332 -1.220703,-4.451172 -0.743912,-3.15368 -1.304006,-6.455412 -1.378906,-7.158203 0.0024,0.02254 0.0091,-1.1755171 0.146484,-2.5214845 0.137401,-1.3459674 0.363944,-3.021246 0.654297,-4.71875 0.580705,-3.39500793 1.688109,-7.157652 2.09375,-7.8164063 0.560492,-0.9102329 3.314311,-3.8940066 6.101562,-6.7207032 2.787251,-2.826696 5.656802,-5.652336 7.273438,-7.804687 0.774058,-1.030563 4.324262,-3.730667 7.787109,-5.824219 3.462848,-2.093553 7.241514,-3.955273 8.019532,-4.226563 0.665039,-0.231895 5.221774,-1.170036 9.355468,-1.6875 2.066847,-0.258732 4.122958,-0.448494 5.736328,-0.500001 z"
         id="path882" />
    </g>
    <g
       id="path916"
       style="opacity:1;stroke-width:0.904862"
       transform="matrix(1,0,0,1.2213376,0.58817291,-1.4459361)">
      <path
         style="color:#000000;font-style:normal;font-variant:normal;font-weight:normal;font-stretch:normal;font-size:medium;line-height:normal;font-family:sans-serif;font-variant-ligatures:normal;font-variant-position:normal;font-variant-caps:normal;font-variant-numeric:normal;font-variant-alternates:normal;font-variant-east-asian:normal;font-feature-settings:normal;font-variation-settings:normal;text-indent:0;text-align:start;text-decoration:none;text-decoration-line:none;text-decoration-style:solid;text-decoration-color:#000000;letter-spacing:normal;word-spacing:normal;text-transform:none;writing-mode:lr-tb;direction:ltr;text-orientation:mixed;dominant-baseline:auto;baseline-shift:baseline;text-anchor:start;white-space:normal;shape-padding:0;shape-margin:0;inline-size:0;clip-rule:nonzero;display:inline;overflow:visible;visibility:visible;isolation:auto;mix-blend-mode:normal;color-interpolation:sRGB;color-interpolation-filters:linearRGB;solid-color:#000000;solid-opacity:1;vector-effect:none;fill:#ff0000;fill-opacity:0;fill-rule:nonzero;stroke:none;stroke-width:4.31166;stroke-linecap:butt;stroke-linejoin:miter;stroke-miterlimit:4;stroke-dasharray:none;stroke-dashoffset:0;stroke-opacity:1;color-rendering:auto;image-rendering:auto;shape-rendering:auto;text-rendering:auto;enable-background:accumulate;stop-color:#000000;stop-opacity:1"
         d="m -21.842225,-22.043923 c 2.578951,1.476629 24.4468885,19.1074328 27.8331314,19.0208658 3.3862428,-0.08657 10.7755616,-0.8574438 13.0495196,-0.5111778 2.273961,0.346263 6.233637,0.4649373 6.889604,2.95139437 0.655968,2.48645593 2.787796,42.51068663 -0.790768,45.18085963 0,0 -7.435294,0.684286 -12.372715,0.630235 -4.9374204,-0.05405 -35.720171,-1.45165 -38.886142,-1.184839 -3.165969,0.266809 -25.232754,-0.593018 -26.831337,0.356217 -1.598587,0.949235 -4.607059,1.208934 -6.156991,1.122367 -1.549934,-0.08657 -13.726657,-0.02032 -15.861245,-3.895468 -2.134585,-3.875156 -3.182391,-6.828679 -1.709697,-9.665774 1.472694,-2.837095 4.986719,-9.824516 13.058799,-10.170253 8.072082,-0.345733 6.315623,1.834275 6.315623,1.834275 l 1.686435,-2.500498 c 0,0 24.732004,1.963436 27.901858,0.675354 3.16985,-1.288079 4.060194,-7.505652 1.333774,-6.028843 -2.72642,1.476809 -4.644645,3.121562 -6.932642,3.467825 -2.287996,0.346265 -7.155916,-1.640885 -7.155916,-1.640885 0,0 -7.906548,1.986738 -9.288677,2.073304 -1.382131,0.08657 -4.408189,2.770108 -3.448707,-1.904452 0.959481,-4.674561 7.776675,-14.1933402 10.409412,-14.5396062 2.632739,-0.346263 5.584992,7.3636892 6.175443,8.0506382 0.590451,0.686949 0.811761,-9.6145082 0.516635,-12.03823923 -0.295127,-2.42372897 -1.992672,-3.46251997 -0.368932,-9.08930607 1.623739,-5.6267867 14.633536,-12.1939937 14.633535,-12.1939937 z"
         id="path874" />
      <path
         style="color:#000000;font-style:normal;font-variant:normal;font-weight:normal;font-stretch:normal;font-size:medium;line-height:normal;font-family:sans-serif;font-variant-ligatures:normal;font-variant-position:normal;font-variant-caps:normal;font-variant-numeric:normal;font-variant-alternates:normal;font-variant-east-asian:normal;font-feature-settings:normal;font-variation-settings:normal;text-indent:0;text-align:start;text-decoration:none;text-decoration-line:none;text-decoration-style:solid;text-decoration-color:#000000;letter-spacing:normal;word-spacing:normal;text-transform:none;writing-mode:lr-tb;direction:ltr;text-orientation:mixed;dominant-baseline:auto;baseline-shift:baseline;text-anchor:start;white-space:normal;shape-padding:0;shape-margin:0;inline-size:0;clip-rule:nonzero;display:inline;overflow:visible;visibility:visible;isolation:auto;mix-blend-mode:normal;color-interpolation:sRGB;color-interpolation-filters:linearRGB;solid-color:#000000;solid-opacity:1;vector-effect:none;fill:#000000;fill-opacity:1;fill-rule:nonzero;stroke:none;stroke-width:0.812573;stroke-linecap:butt;stroke-linejoin:miter;stroke-miterlimit:4;stroke-dasharray:none;stroke-dashoffset:0;stroke-opacity:1;color-rendering:auto;image-rendering:auto;shape-rendering:auto;text-rendering:auto;enable-background:accumulate;stop-color:#000000;stop-opacity:1"
         d="m -21.771484,-24.748047 -1.144532,0.578125 c 0,0 -3.36996,1.695518 -6.972656,4.140625 -3.602696,2.445107 -7.663574,5.314775 -8.876953,9.519531 -1.768043,6.1268434 0.120469,8.6204545 0.292969,10.03710975 0.0524,0.43030179 0.02552,2.40681565 0.0332,3.97070315 -0.230488,-0.2945211 -0.385215,-0.6316327 -0.646485,-0.9042969 -0.88931,-0.9280953 -2.174855,-1.97164482 -4.023437,-1.72851562 -1.925596,0.25326052 -2.804911,1.27745252 -3.96875,2.42968752 -1.163839,1.1522349 -2.352941,2.6030819 -3.490234,4.1914062 -2.274587,3.1766489 -4.335456,6.6868449 -4.97461,9.8007809 -0.107725,0.524833 -0.163138,0.978683 -0.207031,1.4375 l -1.066406,-0.08594 -0.792969,1.177734 c -1.402354,-0.490412 -3.200528,-0.531005 -6.113281,-0.40625 -9.413677,0.403199 -13.620587,8.660277 -15.070313,11.453125 -0.998545,1.923665 -1.142316,4.074686 -0.710937,6.048828 0.431379,1.974142 1.336041,3.845949 2.447265,5.863282 0.996902,1.809783 2.694136,2.681112 4.423829,3.318359 1.729692,0.637247 3.635684,1.008438 5.490234,1.261719 3.709099,0.506561 7.508024,0.522897 7.902344,0.544922 1.986215,0.110934 4.942969,0.06871 7.505859,-1.453125 -0.451295,0.267978 -0.389746,0.163238 -0.255859,0.138672 0.133886,-0.02457 0.396579,-0.05996 0.732422,-0.08984 0.671685,-0.05977 1.643825,-0.104977 2.787109,-0.132813 2.286567,-0.05567 5.276952,-0.04699 8.322265,-0.01563 3.045314,0.03136 6.148855,0.0849 8.699219,0.113282 2.550364,0.02838 4.400322,0.05217 5.529297,-0.04297 0.296118,-0.02496 3.057995,-0.02167 6.451172,0.07227 3.393177,0.09393 7.68766,0.244956 12.0390625,0.40625 8.7028055,0.32259 17.5306455,0.685952 20.1699215,0.714844 5.183691,0.05675 12.617188,-0.640625 12.617188,-0.640625 l 0.667969,-0.0625 0.539062,-0.400391 c 1.635995,-1.22071 1.67495,-2.491366 1.996094,-4.029296 0.321144,-1.537931 0.530731,-3.403742 0.681641,-5.548828 0.301819,-4.290174 0.346156,-9.664498 0.261718,-15.029297 C 29.419469,16.535592 29.202926,11.190537 28.964844,7.0136719 28.845802,4.9252393 28.722407,3.1308598 28.605469,1.7597656 28.48853,0.38867144 28.476853,-0.27229087 28.234375,-1.1914062 27.607156,-3.5688917 25.435244,-4.6746526 23.740234,-5.1542969 22.045225,-5.6339412 20.372004,-5.740424 19.398438,-5.8886719 17.621646,-6.1592321 15.366107,-5.9803752 12.783203,-5.8183594 10.2003,-5.6563435 7.486456,-5.444096 5.9296875,-5.4042969 6.5718665,-5.4207137 5.823986,-5.4583953 5.0175781,-5.8730469 4.2111702,-6.2876984 3.1156621,-6.943216 1.8710938,-7.75 c -2.48913679,-1.6135679 -5.5972109,-3.837765 -8.6855469,-6.115234 -3.0883361,-2.27747 -6.1617499,-4.611375 -8.6328129,-6.47461 -2.471062,-1.863234 -4.051998,-3.107911 -5.210937,-3.771484 z m -0.197266,5.542969 c 0.729026,0.515433 1.743905,1.230918 3.652344,2.669922 2.460325,1.855138 5.54953,4.20187 8.6738279,6.505859 3.1242975,2.3039892 6.2778004,4.5633384 8.92187498,6.2773439 1.32203729,0.8570027 2.51282992,1.5765027 3.56054692,2.1152343 1.0477169,0.5387317 1.7241509,1.03415242 3.2128906,0.9960938 1.8294742,-0.0467709 4.5024906,-0.26337794 7.0292966,-0.421875 2.526806,-0.1584971 5.102443,-0.1928933 5.59961,-0.1171875 1.300395,0.19801512 2.744408,0.32345527 3.761718,0.61132812 1.017311,0.28787286 1.154846,0.48477838 1.183594,0.59375001 -0.07849,-0.2975014 0.119245,0.83654049 0.230469,2.14062497 0.111223,1.3040845 0.232461,3.0639223 0.349609,5.1191406 0.234296,4.1104368 0.450009,9.4055688 0.533203,14.6914058 0.08319,5.285838 0.03248,10.57413 -0.251953,14.617188 -0.142217,2.021529 -0.349081,3.740414 -0.59375,4.912109 -0.07774,0.372279 -0.185265,0.553733 -0.291015,0.78711 -1.333835,0.115466 -6.629321,0.598507 -10.810547,0.552734 -2.298144,-0.02516 -11.3305044,-0.387917 -20.0449221,-0.710937 -4.3572089,-0.16151 -8.6606719,-0.313437 -12.0839849,-0.408204 -3.423312,-0.09477 -5.697507,-0.16509 -6.984374,-0.05664 -0.45401,0.03826 -2.54863,0.05352 -5.076172,0.02539 -2.527543,-0.02813 -5.63422,-0.07974 -8.701172,-0.111328 -3.066952,-0.03159 -6.090741,-0.0428 -8.490235,0.01563 -1.199746,0.02921 -2.238359,0.07445 -3.091797,0.150391 -0.426718,0.03797 -0.805346,0.08118 -1.171874,0.148438 -0.366529,0.06725 -0.665289,0.06649 -1.316407,0.453124 -0.634283,0.376636 -3.692991,0.853216 -4.80664,0.791016 -1.155615,-0.06455 -4.221092,-0.05707 -7.521485,-0.507812 -1.650196,-0.225372 -3.28605,-0.568797 -4.488281,-1.011719 -1.202231,-0.442922 -1.828045,-1.018694 -1.898437,-1.146485 -1.023361,-1.857823 -1.708801,-3.399395 -1.966797,-4.580078 -0.257997,-1.180682 -0.188992,-1.92446 0.285156,-2.83789 1.495662,-2.881342 4.316392,-8.600397 11.046875,-8.888672 3.829532,-0.164022 5.035661,0.660076 4.507812,0.195312 -0.263924,-0.232382 -0.569792,-1.098406 -0.486328,-1.529296 0.06152,-0.317621 0.171808,-0.418853 0.248047,-0.519532 l 3.798828,2.802735 c 0,0 0.07044,-0.167868 0.08594,-0.1875 l 0.0332,0.02539 0.921875,-1.367187 c 1.144462,0.08885 5.532606,0.43853 11.433594,0.734375 3.311367,0.166015 6.724642,0.291912 9.558593,0.294922 1.416976,0.0015 2.686597,-0.02533 3.759766,-0.101563 1.073169,-0.07623 1.843358,-0.105633 2.837891,-0.509766 2.751465,-1.118067 3.925182,-3.636814 4.324218,-5.833984 0.199519,-1.098585 0.352512,-2.211587 -0.488281,-3.539062 -0.420396,-0.663738 -1.304111,-1.318735 -2.224609,-1.44336 -0.920498,-0.124625 -1.685812,0.145978 -2.310547,0.484375 -2.966313,1.606751 -4.775161,2.998315 -6.154297,3.207031 -0.230118,0.03483 -2.007806,-0.197986 -3.390625,-0.615234 -1.382819,-0.417247 -2.507812,-0.875 -2.507812,-0.875 l -0.722657,-0.296875 -0.757812,0.191406 c 0,0 -1.964764,0.49341 -4.09375,0.996094 -1.064493,0.251342 -2.169395,0.505363 -3.074219,0.697266 -0.904824,0.191902 -1.769926,0.31754 -1.689453,0.3125 -0.341197,0.02137 -0.408778,0.123179 -0.650391,0.183593 0.565299,-1.75512 2.055591,-4.689478 3.865235,-7.216796 1.016032,-1.4189742 2.083924,-2.704075 2.96875,-3.5800785 0.419598,-0.415415 0.838883,-0.6812225 1.117187,-0.8574219 0.03972,0.035498 0.03012,0.016228 0.08008,0.068359 0.423147,0.4416015 0.998987,1.2691564 1.519532,2.1679688 0.520544,0.8988123 1.005264,1.8696244 1.402343,2.6757816 0.19854,0.403078 0.374374,0.762787 0.53711,1.078125 0.162735,0.315338 0.166727,0.468503 0.638671,1.017578 0.264283,0.307475 0.858073,0.830997 1.783204,0.861328 0.92513,0.03033 1.622026,-0.501137 1.912109,-0.828125 0.580167,-0.653975 0.538756,-0.910691 0.609375,-1.162109 0.141239,-0.502837 0.186187,-0.901862 0.242188,-1.414063 0.112001,-1.0244005 0.183188,-2.3518948 0.230468,-3.7832032 0.09456,-2.8626167 0.11531,-5.86790469 -0.08984,-7.5527343 -0.417754,-3.4308028 -1.924749,-3.0138958 -0.445312,-8.140625 0.41036,-1.4220305 3.666473,-4.6512905 6.974609,-6.8964845 2.692508,-1.827372 4.377843,-2.664763 5.244141,-3.11914 z"
         id="path876" />
    </g>
    <path
       style="color:#000000;font-style:normal;font-variant:normal;font-weight:normal;font-stretch:normal;font-size:medium;line-height:normal;font-family:sans-serif;font-variant-ligatures:normal;font-variant-position:normal;font-variant-caps:normal;font-variant-numeric:normal;font-variant-alternates:normal;font-variant-east-asian:normal;font-feature-settings:normal;font-variation-settings:normal;text-indent:0;text-align:start;text-decoration:none;text-decoration-line:none;text-decoration-style:solid;text-decoration-color:#000000;letter-spacing:normal;word-spacing:normal;text-transform:none;writing-mode:lr-tb;direction:ltr;text-orientation:mixed;dominant-baseline:auto;baseline-shift:baseline;text-anchor:start;white-space:normal;shape-padding:0;shape-margin:0;inline-size:0;clip-rule:nonzero;display:inline;overflow:visible;visibility:visible;opacity:1;isolation:auto;mix-blend-mode:normal;color-interpolation:sRGB;color-interpolation-filters:linearRGB;solid-color:#000000;solid-opacity:1;vector-effect:none;fill:#000000;fill-opacity:1;fill-rule:evenodd;stroke:none;stroke-width:0.999995;stroke-linecap:round;stroke-linejoin:round;stroke-miterlimit:4;stroke-dasharray:none;stroke-dashoffset:0;stroke-opacity:1;color-rendering:auto;image-rendering:auto;shape-rendering:auto;text-rendering:auto;enable-background:accumulate;stop-color:#000000;stop-opacity:1"
       d="m 0.98891567,-65.501124 a 9.4742709,11.591394 6.1489462 0 0 -7.29395217,3.354191 L -67.139078,8.603228 a 9.4742709,11.591394 6.1489462 0 0 -0.612634,16.361585 9.4742709,11.591394 6.1489462 0 0 13.422951,0.03903 L 6.5052796,-45.746283 a 9.4742709,11.591394 6.1489462 0 0 0.6106846,-16.361701 9.4742709,11.591394 6.1489462 0 0 -6.12704853,-3.393131 z"
       id="path888" />
    <path
       style="color:#000000;font-style:normal;font-variant:normal;font-weight:normal;font-stretch:normal;font-size:medium;line-height:normal;font-family:sans-serif;font-variant-ligatures:normal;font-variant-position:normal;font-variant-caps:normal;font-variant-numeric:normal;font-variant-alternates:normal;font-variant-east-asian:normal;font-feature-settings:normal;font-variation-settings:normal;text-indent:0;text-align:start;text-decoration:none;text-decoration-line:none;text-decoration-style:solid;text-decoration-color:#000000;letter-spacing:normal;word-spacing:normal;text-transform:none;writing-mode:lr-tb;direction:ltr;text-orientation:mixed;dominant-baseline:auto;baseline-shift:baseline;text-anchor:start;white-space:normal;shape-padding:0;shape-margin:0;inline-size:0;clip-rule:nonzero;display:inline;overflow:visible;visibility:visible;opacity:1;isolation:auto;mix-blend-mode:normal;color-interpolation:sRGB;color-interpolation-filters:linearRGB;solid-color:#000000;solid-opacity:1;vector-effect:none;fill:#000000;fill-opacity:1;fill-rule:evenodd;stroke:none;stroke-width:0.999995;stroke-linecap:round;stroke-linejoin:round;stroke-miterlimit:4;stroke-dasharray:none;stroke-dashoffset:0;stroke-opacity:1;color-rendering:auto;image-rendering:auto;shape-rendering:auto;text-rendering:auto;enable-background:accumulate;stop-color:#000000;stop-opacity:1"
       d="m -92.247765,40.077157 a 1.8326832,2.2383249 0 0 0 -1.666015,1.51713 c 0.06337,-0.227966 -0.01158,0.02568 -0.130859,0.291022 -0.119282,0.265333 -0.296449,0.637657 -0.515626,1.085369 -0.438353,0.895421 -1.048085,2.097075 -1.767578,3.487491 -1.438985,2.780833 -3.316144,6.321732 -5.175787,9.801711 -3.71927,6.959958 -7.37304,13.678027 -7.37304,13.678027 a 1.8326832,2.2383249 0 0 0 2.39453,3.210782 l 24.632813,-16.173182 a 1.8326832,2.2383249 0 0 0 0.488281,-3.477949 l -9.46289,-12.690462 a 1.8326832,2.2383249 0 0 0 -1.423829,-0.729939 z m 0.414063,6.020812 6.181641,8.291737 -16.183599,10.627069 c 1.33675,-2.474454 1.68389,-3.097326 3.400395,-6.309449 1.864814,-3.489669 3.748094,-7.04096 5.205079,-9.856576 0.559809,-1.081831 0.984971,-1.928451 1.396484,-2.752781 z"
       id="path1031" />
    <path
       style="color:#000000;font-style:normal;font-variant:normal;font-weight:normal;font-stretch:normal;font-size:medium;line-height:normal;font-family:sans-serif;font-variant-ligatures:normal;font-variant-position:normal;font-variant-caps:normal;font-variant-numeric:normal;font-variant-alternates:normal;font-variant-east-asian:normal;font-feature-settings:normal;font-variation-settings:normal;text-indent:0;text-align:start;text-decoration:none;text-decoration-line:none;text-decoration-style:solid;text-decoration-color:#000000;letter-spacing:normal;word-spacing:normal;text-transform:none;writing-mode:lr-tb;direction:ltr;text-orientation:mixed;dominant-baseline:auto;baseline-shift:baseline;text-anchor:start;white-space:normal;shape-padding:0;shape-margin:0;inline-size:0;clip-rule:nonzero;display:inline;overflow:visible;visibility:visible;opacity:1;isolation:auto;mix-blend-mode:normal;color-interpolation:sRGB;color-interpolation-filters:linearRGB;solid-color:#000000;solid-opacity:1;vector-effect:none;fill:#000000;fill-opacity:1;fill-rule:evenodd;stroke:none;stroke-width:0.999995;stroke-linecap:butt;stroke-linejoin:miter;stroke-miterlimit:4;stroke-dasharray:none;stroke-dashoffset:0;stroke-opacity:1;color-rendering:auto;image-rendering:auto;shape-rendering:auto;text-rendering:auto;enable-background:accumulate;stop-color:#000000;stop-opacity:1"
       d="m -56.521202,27.074205 c 0,0 -1.145399,7.727335 -0.9375,12.151355 0.267903,5.70092 3.595703,11.337925 3.595703,11.337925 l 0.07617,0.138355 2.068359,2.654979 2.365235,-2.748011 -1.845703,-2.368726 c -0.07935,-0.154923 -2.8255,-5.530188 -3,-9.243523 -0.149242,-3.175807 0.896484,-11.254434 0.896484,-11.254434 z"
       id="path1033" />
    <path
       style="color:#000000;font-style:normal;font-variant:normal;font-weight:normal;font-stretch:normal;font-size:medium;line-height:normal;font-family:sans-serif;font-variant-ligatures:normal;font-variant-position:normal;font-variant-caps:normal;font-variant-numeric:normal;font-variant-alternates:normal;font-variant-east-asian:normal;font-feature-settings:normal;font-variation-settings:normal;text-indent:0;text-align:start;text-decoration:none;text-decoration-line:none;text-decoration-style:solid;text-decoration-color:#000000;letter-spacing:normal;word-spacing:normal;text-transform:none;writing-mode:lr-tb;direction:ltr;text-orientation:mixed;dominant-baseline:auto;baseline-shift:baseline;text-anchor:start;white-space:normal;shape-padding:0;shape-margin:0;inline-size:0;clip-rule:nonzero;display:inline;overflow:visible;visibility:visible;opacity:1;isolation:auto;mix-blend-mode:normal;color-interpolation:sRGB;color-interpolation-filters:linearRGB;solid-color:#000000;solid-opacity:1;vector-effect:none;fill:#000000;fill-opacity:1;fill-rule:evenodd;stroke:none;stroke-width:0.999995;stroke-linecap:butt;stroke-linejoin:miter;stroke-miterlimit:4;stroke-dasharray:none;stroke-dashoffset:0;stroke-opacity:1;color-rendering:auto;image-rendering:auto;shape-rendering:auto;text-rendering:auto;enable-background:accumulate;stop-color:#000000;stop-opacity:1"
       d="m -53.611046,23.498453 -2.83789,1.71035 c 2.296195,5.69032 3.319243,10.266148 3.384765,13.620775 0.06474,3.314383 -0.847656,12.921849 -0.847656,12.921849 l 3.142578,0.462772 c 0,0 0.952019,-9.232415 0.869141,-13.475265 -0.08209,-4.202603 -1.285543,-9.229988 -3.710938,-15.240481 z"
       id="path1035" />
    <path
       style="color:#000000;font-style:normal;font-variant:normal;font-weight:normal;font-stretch:normal;font-size:medium;line-height:normal;font-family:sans-serif;font-variant-ligatures:normal;font-variant-position:normal;font-variant-caps:normal;font-variant-numeric:normal;font-variant-alternates:normal;font-variant-east-asian:normal;font-feature-settings:normal;font-variation-settings:normal;text-indent:0;text-align:start;text-decoration:none;text-decoration-line:none;text-decoration-style:solid;text-decoration-color:#000000;letter-spacing:normal;word-spacing:normal;text-transform:none;writing-mode:lr-tb;direction:ltr;text-orientation:mixed;dominant-baseline:auto;baseline-shift:baseline;text-anchor:start;white-space:normal;shape-padding:0;shape-margin:0;inline-size:0;clip-rule:nonzero;display:inline;overflow:visible;visibility:visible;opacity:1;isolation:auto;mix-blend-mode:normal;color-interpolation:sRGB;color-interpolation-filters:linearRGB;solid-color:#000000;solid-opacity:1;vector-effect:none;fill:#000000;fill-opacity:1;fill-rule:evenodd;stroke:none;stroke-width:0.999995;stroke-linecap:butt;stroke-linejoin:miter;stroke-miterlimit:4;stroke-dasharray:none;stroke-dashoffset:0;stroke-opacity:1;color-rendering:auto;image-rendering:auto;shape-rendering:auto;text-rendering:auto;enable-background:accumulate;stop-color:#000000;stop-opacity:1"
       d="m 32.972939,-11.510044 c -2.321073,-0.01581 -4.367,0.817303 -5.664063,1.400245 -1.533498,0.6892008 -2.522555,1.8340638 -3.503906,2.8648948 -0.981352,1.030832 -1.751953,1.96559 -1.751953,1.96559 l 3.353515,4.1339416 c 0,0 0.667176,-0.8055257 1.50586,-1.6864955 0.838683,-0.8809698 2.051799,-1.8192765 2.042969,-1.8153082 1.319925,-0.5932169 3.820902,-1.2900269 5.322265,-0.8587529 1.748905,0.502382 3.633331,0.469672 5.363281,0.8444407 1.729951,0.3747681 2.833916,1.0676406 3.160157,1.7556723 1.626244,3.42970411 3.5,9.4778102 3.5,14.5630202 0,2.6762 -0.332867,11.616734 -0.925782,19.999403 -0.296457,4.191334 -0.658536,8.283789 -1.064453,11.4238 -0.202958,1.570004 -0.420279,2.906195 -0.623047,3.838148 -0.202767,0.931955 -0.594261,1.541446 -0.226562,1.037661 -1.216283,1.666432 -1.881232,2.976923 -2.439453,3.618688 -0.558221,0.641766 -0.979995,1.003523 -2.658203,1.171245 -1.473826,0.147294 -4.13594,-0.401508 -6.265625,-1.07344 -2.129685,-0.671934 -3.759766,-1.388319 -3.759766,-1.388319 l -0.390625,-0.17175 h -2.220703 v 5.820437 h 1.464844 c 0.346644,0.149155 1.622072,0.713718 3.714843,1.374005 2.354621,0.742901 5.205722,1.50426 7.845703,1.24042 2.435602,-0.243417 4.305575,-1.320094 5.535157,-2.733696 1.229581,-1.413604 1.847127,-2.773391 2.730469,-3.98366 0.892605,-1.222961 1.002749,-2.165207 1.27539,-3.418313 0.272641,-1.253108 0.506262,-2.735916 0.72461,-4.424965 0.436695,-3.378097 0.803349,-7.557941 1.105468,-11.829322 0.604239,-8.542761 0.94336,-17.283588 0.94336,-20.500342 0,-6.7007034 -2.143081,-13.2611253 -4.142578,-17.4780092 -1.48663,-3.135265 -4.211176,-4.085212 -6.451172,-4.5704738 -2.239996,-0.485263 -4.466956,-0.59718 -5.103516,-0.780035 -0.817392,-0.234799 -1.622793,-0.333456 -2.396484,-0.33873 z"
       id="path838" />
    <path
       style="color:#000000;font-style:normal;font-variant:normal;font-weight:normal;font-stretch:normal;font-size:medium;line-height:normal;font-family:sans-serif;font-variant-ligatures:normal;font-variant-position:normal;font-variant-caps:normal;font-variant-numeric:normal;font-variant-alternates:normal;font-variant-east-asian:normal;font-feature-settings:normal;font-variation-settings:normal;text-indent:0;text-align:start;text-decoration:none;text-decoration-line:none;text-decoration-style:solid;text-decoration-color:#000000;letter-spacing:normal;word-spacing:normal;text-transform:none;writing-mode:lr-tb;direction:ltr;text-orientation:mixed;dominant-baseline:auto;baseline-shift:baseline;text-anchor:start;white-space:normal;shape-padding:0;shape-margin:0;inline-size:0;clip-rule:nonzero;display:inline;overflow:visible;visibility:visible;opacity:1;isolation:auto;mix-blend-mode:normal;color-interpolation:sRGB;color-interpolation-filters:linearRGB;solid-color:#000000;solid-opacity:1;vector-effect:none;fill:#000000;fill-opacity:1;fill-rule:evenodd;stroke:none;stroke-width:0.999995;stroke-linecap:butt;stroke-linejoin:miter;stroke-miterlimit:4;stroke-dasharray:none;stroke-dashoffset:0;stroke-opacity:1;color-rendering:auto;image-rendering:auto;shape-rendering:auto;text-rendering:auto;enable-background:accumulate;stop-color:#000000;stop-opacity:1"
       d="m -84.970134,27.911951 -8.394613,12.560573 12.093545,16.06645 7.646484,-9.699138 -4.057296,-12.202417 z"
       id="path848"
       sodipodi:nodetypes="cccccc" />
    <path
       style="color:#000000;font-style:normal;font-variant:normal;font-weight:normal;font-stretch:normal;font-size:medium;line-height:normal;font-family:sans-serif;font-variant-ligatures:normal;font-variant-position:normal;font-variant-caps:normal;font-variant-numeric:normal;font-variant-alternates:normal;font-variant-east-asian:normal;font-feature-settings:normal;font-variation-settings:normal;text-indent:0;text-align:start;text-decoration:none;text-decoration-line:none;text-decoration-style:solid;text-decoration-color:#000000;letter-spacing:normal;word-spacing:normal;text-transform:none;writing-mode:lr-tb;direction:ltr;text-orientation:mixed;dominant-baseline:auto;baseline-shift:baseline;text-anchor:start;white-space:normal;shape-padding:0;shape-margin:0;inline-size:0;clip-rule:nonzero;display:inline;overflow:visible;visibility:visible;opacity:1;isolation:auto;mix-blend-mode:normal;color-interpolation:sRGB;color-interpolation-filters:linearRGB;solid-color:#000000;solid-opacity:1;vector-effect:none;fill:#000000;fill-opacity:1;fill-rule:evenodd;stroke:none;stroke-width:0.999995;stroke-linecap:round;stroke-linejoin:miter;stroke-miterlimit:4;stroke-dasharray:none;stroke-dashoffset:0;stroke-opacity:1;color-rendering:auto;image-rendering:auto;shape-rendering:auto;text-rendering:auto;enable-background:accumulate;stop-color:#000000;stop-opacity:1"
       d="m -98.001671,58.246938 a 1.8325,2.2381012 0 0 0 -1.253906,0.658378 l -5.855473,7.194442 a 1.8325,2.2381012 0 0 0 0.008,3.165459 1.8325,2.2381012 0 0 0 2.58985,-0.0096 l 5.857232,-7.192072 a 1.8325,2.2381012 0 0 0 -0.0078,-3.165459 1.8325,2.2381012 0 0 0 -1.337891,-0.651222 z"
       id="path844-3-6-7" />
  </g>
</svg>
